<?xml version="1.0" encoding="utf-8"?>
<!-- Generator: Adobe Illustrator 27.1.1, SVG Export Plug-In . SVG Version: 6.00 Build 0)  -->
<svg version="1.1" id="Capa_1" xmlns="http://www.w3.org/2000/svg" xmlns:xlink="http://www.w3.org/1999/xlink" x="0px" y="0px"
	 viewBox="0 0 1080 1080" style="enable-background:new 0 0 1080 1080;" xml:space="preserve">
<style type="text/css">
	.st0{fill:#FFFFFF;}
</style>
<g>
	<path class="st0" d="M834.8,263.1c0-5.9-3.7-8.9-8.3-6.7l-98.6,46.5l-98.4,46.4l-103.1,48.6c-4.8,2.2-8.6,8.9-8.6,14.9v92
		c0,6,3.9,9,8.6,6.7l94.5-45.2c4.7-2.2,8.5,0.7,8.5,6.7v255c0,5.9,3.8,8.9,8.5,6.5l81.5-40.4c4.6-2.3,8.4-8.9,8.4-14.8V425.7
		c0-5.9,3.8-12.5,8.4-14.7l90.2-43.2c4.6-2.2,8.3-8.7,8.3-14.6L834.8,263.1L834.8,263.1z"/>
	<g>
		<path class="st0" d="M285.8,632.3c-24.2-16.5-38.9-37-38.9-61.5V470.4L364.7,546v38.3c0,4.1,2.3,8.8,7.6,12.2
			c4.7,3.1,7.6,1.9,7.6-2.3v-49.9l-95.1-60.8c-26.4-16.9-37.8-37.6-37.8-59.6V277.5c0-22,11.4-28.9,37.8-13.8l179.7,103.1
			c29.7,17.1,42.9,39.2,42.9,62.9v83.5l-127.5-77.5v-14.5c0-4.2-2.3-8.7-7.6-11.8c-5.2-3.2-7.6-1.4-7.6,2.7V440l99.7,61
			c29.7,18.2,42.9,40.8,42.9,64.5v179.9c0,23.7-13.2,29.2-43.5,8.5L285.8,632.3z"/>
	</g>
	<g>
		<path class="st0" d="M605.2,120.4l116.4,60.4c18.6,9.6,15.7,18.8-2.3,26.9l-141.5,63.6c-19.5,8.8-39.8,9.6-58.7-0.8l-59.6-33
			c-3.8-2.1-6.3-2.2-11.3,0l-25.5,10.9l10,5.6l21.8-9.4l81.8,45.4l-107.1,48.2l-171.9-98.7l168.2-69c19.4-7.9,38.9-8.6,56.8,1
			l63.1,34l39.9-17.2c3.4-1.5,4.4-3.4,1-5.2s-7.5-1.5-10.9-0.1l-28.3,12.1L494,166.6c-17.9-9.6-14-18.6,4.9-26.3l51.5-21.1
			C568.7,111.7,587.5,111.2,605.2,120.4z"/>
		<path class="st0" d="M438.1,342.8l319-143.8l55.4,28.8c19.1,9.9,16.6,19.4-1.3,27.8L523,391.5L438.1,342.8z"/>
	</g>
</g>
<g>
	<g>
		<path class="st0" d="M264.1,879.9c-3.2,0-6.3-0.5-9.2-1.6c-2.9-1-5.2-2.4-6.8-4l1.8-3.5c1.5,1.5,3.6,2.7,6.1,3.7
			c2.6,1,5.3,1.5,8.1,1.5c2.7,0,4.9-0.3,6.6-1s3-1.6,3.8-2.7c0.8-1.1,1.2-2.4,1.2-3.8c0-1.7-0.5-3-1.4-4.1c-1-1-2.2-1.8-3.8-2.4
			c-1.6-0.6-3.3-1.1-5.2-1.6c-1.9-0.5-3.8-0.9-5.7-1.4c-1.9-0.5-3.6-1.2-5.2-2.1c-1.6-0.9-2.9-2-3.8-3.4c-1-1.4-1.4-3.3-1.4-5.6
			c0-2.1,0.6-4.1,1.7-5.9c1.1-1.8,2.9-3.2,5.2-4.3c2.3-1.1,5.3-1.6,9-1.6c2.4,0,4.8,0.3,7.2,1c2.4,0.7,4.4,1.6,6.2,2.8l-1.5,3.6
			c-1.8-1.2-3.8-2.1-5.9-2.7c-2.1-0.6-4.1-0.9-6-0.9c-2.6,0-4.7,0.3-6.4,1c-1.7,0.7-2.9,1.6-3.7,2.8s-1.2,2.5-1.2,4
			c0,1.7,0.5,3,1.4,4.1c1,1,2.2,1.8,3.8,2.4c1.6,0.6,3.3,1.1,5.2,1.5c1.9,0.5,3.8,0.9,5.6,1.5c1.9,0.5,3.6,1.2,5.2,2.1
			c1.6,0.8,2.9,2,3.8,3.4c1,1.4,1.4,3.2,1.4,5.5c0,2.1-0.6,4-1.7,5.8s-2.9,3.2-5.3,4.3C270.9,879.4,267.8,879.9,264.1,879.9z"/>
		<path class="st0" d="M297.8,879.6v-39.2h-15.1v-3.9h34.8v3.9h-15.1v39.2H297.8z"/>
		<path class="st0" d="M341.5,879.9c-5.5,0-9.8-1.6-13-4.7c-3.2-3.2-4.7-7.8-4.7-14v-24.7h4.6V861c0,5.1,1.1,8.8,3.4,11.3
			c2.3,2.4,5.5,3.6,9.7,3.6s7.5-1.2,9.8-3.6c2.3-2.4,3.4-6.2,3.4-11.3v-24.5h4.4v24.7c0,6.2-1.6,10.9-4.7,14
			C351.3,878.4,347,879.9,341.5,879.9z"/>
		<path class="st0" d="M372.2,879.6v-43.1h17.5c4.6,0,8.6,0.9,12.1,2.7s6.2,4.4,8.1,7.6c1.9,3.2,2.9,7,2.9,11.2s-1,8-2.9,11.2
			s-4.6,5.8-8.1,7.6s-7.5,2.7-12.1,2.7L372.2,879.6L372.2,879.6z M376.8,875.6h12.7c3.8,0,7.1-0.7,9.9-2.2s5-3.6,6.6-6.2
			c1.6-2.6,2.3-5.7,2.3-9.1c0-3.5-0.8-6.5-2.3-9.2c-1.6-2.6-3.7-4.7-6.6-6.2c-2.8-1.5-6.1-2.2-9.9-2.2h-12.7V875.6z"/>
		<path class="st0" d="M422.4,879.6v-43.1h4.6v43.1H422.4z"/>
		<path class="st0" d="M459.1,879.9c-3.2,0-6.2-0.5-9-1.6s-5.2-2.6-7.2-4.6s-3.6-4.3-4.7-7c-1.1-2.6-1.7-5.6-1.7-8.7
			c0-3.2,0.6-6.1,1.7-8.7c1.1-2.6,2.7-5,4.7-7s4.4-3.5,7.2-4.6c2.7-1.1,5.8-1.6,9.1-1.6c3.2,0,6.2,0.5,9,1.6
			c2.7,1.1,5.1,2.6,7.2,4.6c2,2,3.6,4.3,4.7,7s1.7,5.6,1.7,8.7c0,3.2-0.6,6.1-1.7,8.7c-1.1,2.7-2.7,5-4.7,7s-4.4,3.5-7.2,4.6
			S462.4,879.9,459.1,879.9z M459.1,875.9c2.6,0,5-0.4,7.2-1.3c2.2-0.9,4.1-2.1,5.7-3.8c1.6-1.6,2.9-3.5,3.8-5.7s1.4-4.5,1.4-7.1
			s-0.5-5-1.4-7.1c-0.9-2.2-2.2-4-3.8-5.7c-1.6-1.6-3.5-2.9-5.7-3.8c-2.2-0.9-4.6-1.3-7.2-1.3s-5,0.4-7.2,1.3
			c-2.2,0.9-4.1,2.1-5.8,3.8c-1.6,1.6-2.9,3.5-3.8,5.7s-1.4,4.5-1.4,7.1c0,2.5,0.5,4.9,1.4,7.1c0.9,2.2,2.2,4.1,3.8,5.7
			c1.6,1.6,3.6,2.9,5.8,3.8C454.1,875.4,456.5,875.9,459.1,875.9z"/>
		<path class="st0" d="M518.6,879.9c-3.2,0-6.3-0.5-9.2-1.6c-2.9-1-5.2-2.4-6.8-4l1.8-3.5c1.5,1.5,3.6,2.7,6.1,3.7
			c2.6,1,5.3,1.5,8.1,1.5c2.7,0,4.9-0.3,6.6-1c1.7-0.7,3-1.6,3.8-2.7c0.8-1.1,1.2-2.4,1.2-3.8c0-1.7-0.5-3-1.4-4.1
			c-1-1-2.2-1.8-3.8-2.4c-1.6-0.6-3.3-1.1-5.2-1.6s-3.8-0.9-5.7-1.4s-3.6-1.2-5.2-2.1c-1.6-0.9-2.9-2-3.8-3.4
			c-1-1.4-1.4-3.3-1.4-5.6c0-2.1,0.6-4.1,1.7-5.9c1.1-1.8,2.9-3.2,5.2-4.3s5.3-1.6,9-1.6c2.4,0,4.8,0.3,7.2,1s4.4,1.6,6.2,2.8
			l-1.5,3.6c-1.8-1.2-3.8-2.1-5.9-2.7c-2.1-0.6-4.1-0.9-6-0.9c-2.6,0-4.7,0.3-6.4,1s-2.9,1.6-3.7,2.8c-0.8,1.2-1.2,2.5-1.2,4
			c0,1.7,0.5,3,1.4,4.1c1,1,2.2,1.8,3.8,2.4c1.6,0.6,3.3,1.1,5.2,1.5c1.9,0.5,3.8,0.9,5.6,1.5c1.9,0.5,3.6,1.2,5.2,2.1
			c1.6,0.8,2.9,2,3.8,3.4c1,1.4,1.4,3.2,1.4,5.5c0,2.1-0.6,4-1.7,5.8c-1.1,1.8-2.9,3.2-5.3,4.3S522.3,879.9,518.6,879.9z"/>
		<path class="st0" d="M552.3,879.6v-39.2h-15.1v-3.9H572v3.9h-15.1v39.2H552.3z"/>
		<path class="st0" d="M571.7,879.6l19.7-43.1h4.5l19.7,43.1h-4.8l-18.1-40.5h1.8l-18.1,40.5H571.7z M579.4,868l1.4-3.7h25.1
			l1.4,3.7H579.4z"/>
		<path class="st0" d="M622,879.6v-43.1h3.8l29.7,37.4h-2v-37.4h4.5v43.1h-3.8l-29.7-37.4h2v37.4H622z"/>
		<path class="st0" d="M671.4,879.6v-43.1H689c4.6,0,8.6,0.9,12.1,2.7s6.2,4.4,8.1,7.6c1.9,3.2,2.9,7,2.9,11.2s-1,8-2.9,11.2
			s-4.6,5.8-8.1,7.6s-7.5,2.7-12.1,2.7L671.4,879.6L671.4,879.6z M676,875.6h12.7c3.8,0,7.1-0.7,9.9-2.2s5-3.6,6.6-6.2
			c1.6-2.6,2.3-5.7,2.3-9.1c0-3.5-0.8-6.5-2.3-9.2c-1.6-2.6-3.7-4.7-6.6-6.2s-6.1-2.2-9.9-2.2H676V875.6z"/>
		<path class="st0" d="M740.6,880.3c-3.4,0-6.5-0.6-9.4-1.7c-2.9-1.1-5.4-2.7-7.5-4.7s-3.8-4.4-5-7.1s-1.8-5.7-1.8-8.9
			s0.6-6.2,1.8-8.9s2.8-5,5-7c2.1-2,4.6-3.6,7.5-4.7s6-1.7,9.4-1.7s6.5,0.5,9.4,1.6s5.3,2.6,7.5,4.6c2.1,2,3.8,4.4,5,7.1
			s1.8,5.7,1.8,8.9s-0.6,6.2-1.8,8.9s-2.8,5.1-5,7.1c-2.1,2-4.6,3.6-7.5,4.6C747.1,879.8,744,880.3,740.6,880.3z M740.6,871.9
			c1.9,0,3.7-0.3,5.3-1s3-1.6,4.3-2.9c1.2-1.3,2.2-2.7,2.9-4.4s1-3.5,1-5.6s-0.3-3.9-1-5.6c-0.7-1.7-1.6-3.1-2.9-4.4
			s-2.7-2.2-4.3-2.9s-3.4-1-5.3-1s-3.7,0.3-5.4,1c-1.6,0.7-3.1,1.6-4.3,2.9s-2.2,2.7-2.8,4.4c-0.7,1.7-1,3.5-1,5.6s0.3,3.9,1,5.6
			c0.7,1.7,1.6,3.1,2.8,4.4c1.2,1.3,2.6,2.2,4.3,2.9C736.9,871.5,738.6,871.9,740.6,871.9z"/>
		<path class="st0" d="M790.1,880.3c-6.1,0-10.9-1.7-14.3-5.1c-3.4-3.4-5.2-8.3-5.2-14.7v-24.1h10v23.8c0,4.1,0.8,7,2.5,8.8
			s4,2.7,7,2.7s5.4-0.9,7.1-2.7c1.7-1.8,2.5-4.8,2.5-8.8v-23.8h9.8v24.1c0,6.4-1.7,11.2-5.2,14.7S796.2,880.3,790.1,880.3z"/>
		<path class="st0" d="M827.8,879.6v-35H814v-8.1h37.6v8.1h-13.8v35H827.8z"/>
	</g>
</g>
</svg>
